<svg xmlns="http://www.w3.org/2000/svg" xmlns:xlink="http://www.w3.org/1999/xlink"><polygon points="0,200 0,100 1,101 2,100 3,101 4,100 5,101 6,100 7,99 8,100 9,99 10,98 11,97 12,98 13,97 14,98 15,97 16,98 17,97 18,98 19,99 20,98 21,97 22,98 23,99 24,98 25,97 26,96 27,95 28,94 29,93 30,94 31,95 32,96 33,95 34,94 35,93 36,94 37,95 38,96 39,97 40,98 41,99 42,100 43,99 44,98 45,97 46,96 47,95 48,94 49,95 50,96 51,97 52,96 53,95 54,96 55,97 56,96 57,95 58,96 59,95 60,94 61,93 62,94 63,93 64,94 65,93 66,92 67,91 68,90 69,89 70,90 71,91 72,90 73,91 74,90 75,91 76,90 77,91 78,92 79,93 80,92 81,91 82,90 83,91 84,90 85,91 86,90 87,91 88,90 89,91 90,90 91,89 92,90 93,89 94,88 95,87 96,86 97,87 98,86 99,87 100,86 101,87 102,88 103,87 104,88 105,87 106,88 107,89 108,88 109,87 110,88 111,89 112,88 113,89 114,90 115,89 116,88 117,89 118,88 119,87 120,88 121,87 122,88 123,87 124,88 125,89 126,90 127,89 128,88 129,89 130,90 131,89 132,88 133,89 134,88 135,87 136,86 137,85 138,84 139,83 140,84 141,85 142,84 143,83 144,84 145,85 146,84 147,83 148,82 149,83 150,82 151,81 152,82 153,81 154,82 155,83 156,82 157,81 158,82 159,83 160,84 161,85 162,84 163,83 164,82 165,81 166,80 167,79 168,80 169,79 170,80 171,81 172,82 173,81 174,80 175,81 176,82 177,83 178,84 179,83 180,82 181,81 182,80 183,81 184,80 185,81 186,82 187,83 188,82 189,83 190,82 191,83 192,82 193,81 194,82 195,83 196,82 197,83 198,84 199,85 200,86 201,87 202,88 203,89 204,88 205,89 206,88 207,87 208,86 209,87 210,86 211,87 212,86 213,85 214,84 215,83 216,84 217,83 218,84 219,85 220,84 221,83 222,82 223,83 224,82 225,81 226,80 227,81 228,82 229,81 230,80 231,81 232,80 233,81 234,80 235,79 236,78 237,77 238,78 239,79 240,80 241,81 242,82 243,83 244,82 245,83 246,82 247,81 248,82 249,83 250,84 251,83 252,84 253,83 254,82 255,83 256,84 257,83 258,84 259,85 260,84 261,85 262,84 263,85 264,86 265,85 266,84 267,83 268,82 269,83 270,84 271,83 272,84 273,85 274,84 275,83 276,84 277,85 278,84 279,85 280,84 281,83 282,82 283,81 284,80 285,79 286,78 287,79 288,78 289,79 290,78 291,77 292,78 293,79 294,80 295,79 296,78 297,79 298,78 299,77 300,78 301,79 302,78 303,79 304,78 305,79 306,78 307,77 308,78 309,79 310,78 311,79 312,78 313,79 314,80 315,81 316,82 317,81 318,80 319,79 320,80 321,81 322,82 323,81 324,80 325,81 326,82 327,81 328,80 329,79 330,80 331,81 332,82 333,81 334,82 335,81 336,80 337,81 338,82 339,81 340,82 341,81 342,82 343,83 344,82 345,81 346,80 347,79 348,78 349,79 350,78 351,79 352,78 353,77 354,78 355,79 356,78 357,77 358,78 359,79 360,78 361,77 362,78 363,79 364,78 365,79 366,80 367,79 368,78 369,79 370,78 371,79 372,80 373,81 374,82 375,81 376,82 377,83 378,84 379,85 380,84 381,85 382,84 383,85 384,84 385,85 386,84 387,83 388,82 389,81 390,82 391,83 392,84 393,83 394,84 395,85 396,86 397,85 398,84 399,83 400,200 " style="fill:rgb(238,74,25);stroke:rgb(138,0,0)"></polygon><polygon points="0,200 0,100 1,101 2,100 3,99 4,98 5,99 6,100 7,101 8,102 9,103 10,102 11,101 12,100 13,99 14,98 15,97 16,96 17,95 18,96 19,97 20,98 21,97 22,96 23,95 24,96 25,97 26,98 27,97 28,96 29,97 30,98 31,99 32,100 33,101 34,102 35,103 36,104 37,103 38,102 39,101 40,102 41,101 42,102 43,103 44,102 45,103 46,104 47,103 48,104 49,103 50,104 51,105 52,104 53,103 54,102 55,101 56,102 57,101 58,100 59,99 60,98 61,97 62,96 63,97 64,98 65,99 66,100 67,101 68,100 69,101 70,102 71,103 72,102 73,101 74,102 75,103 76,104 77,105 78,104 79,105 80,106 81,107 82,108 83,109 84,110 85,111 86,110 87,111 88,110 89,111 90,112 91,113 92,114 93,115 94,114 95,115 96,116 97,117 98,116 99,115 100,114 101,115 102,114 103,115 104,116 105,117 106,116 107,117 108,116 109,115 110,116 111,117 112,118 113,117 114,116 115,117 116,116 117,115 118,114 119,115 120,116 121,115 122,114 123,115 124,116 125,115 126,116 127,117 128,118 129,117 130,118 131,119 132,120 133,119 134,120 135,119 136,120 137,121 138,120 139,121 140,120 141,119 142,118 143,117 144,116 145,117 146,116 147,115 148,116 149,115 150,114 151,115 152,114 153,115 154,114 155,113 156,114 157,115 158,116 159,117 160,118 161,117 162,118 163,117 164,118 165,119 166,120 167,119 168,120 169,121 170,120 171,121 172,122 173,121 174,120 175,121 176,120 177,119 178,120 179,121 180,122 181,123 182,122 183,121 184,122 185,123 186,124 187,125 188,124 189,123 190,124 191,125 192,126 193,125 194,124 195,125 196,126 197,125 198,126 199,125 200,126 201,127 202,128 203,129 204,128 205,129 206,130 207,131 208,132 209,131 210,130 211,129 212,128 213,129 214,130 215,129 216,128 217,129 218,128 219,129 220,128 221,129 222,128 223,129 224,128 225,127 226,126 227,127 228,126 229,127 230,126 231,127 232,128 233,127 234,128 235,129 236,130 237,131 238,130 239,129 240,128 241,127 242,126 243,127 244,128 245,129 246,128 247,127 248,128 249,127 250,128 251,127 252,128 253,127 254,126 255,127 256,126 257,125 258,124 259,125 260,124 261,125 262,124 263,125 264,124 265,125 266,124 267,125 268,124 269,125 270,124 271,123 272,124 273,123 274,124 275,125 276,124 277,125 278,126 279,127 280,126 281,127 282,126 283,125 284,124 285,123 286,124 287,123 288,122 289,121 290,122 291,121 292,120 293,121 294,122 295,121 296,120 297,121 298,122 299,121 300,120 301,121 302,122 303,121 304,122 305,121 306,120 307,119 308,120 309,121 310,120 311,119 312,118 313,119 314,120 315,119 316,118 317,117 318,116 319,115 320,114 321,113 322,114 323,113 324,112 325,113 326,114 327,115 328,114 329,115 330,116 331,115 332,114 333,115 334,116 335,117 336,118 337,119 338,120 339,121 340,120 341,121 342,120 343,119 344,120 345,121 346,120 347,121 348,122 349,121 350,120 351,119 352,118 353,117 354,116 355,117 356,116 357,117 358,118 359,119 360,120 361,119 362,118 363,117 364,118 365,119 366,120 367,121 368,122 369,121 370,120 371,121 372,122 373,123 374,122 375,121 376,122 377,123 378,124 379,125 380,126 381,125 382,126 383,127 384,126 385,127 386,128 387,129 388,130 389,129 390,128 391,127 392,128 393,129 394,128 395,129 396,130 397,131 398,132 399,133 400,200 " style="fill:rgb(117,3,250);stroke:rgb(17,0,150)"></polygon><polygon points="0,200 0,100 1,99 2,100 3,99 4,98 5,99 6,98 7,99 8,98 9,99 10,100 11,101 12,102 13,101 14,102 15,101 16,102 17,101 18,102 19,101 20,100 21,99 22,98 23,97 24,98 25,97 26,98 27,99 28,100 29,99 30,98 31,97 32,96 33,95 34,94 35,93 36,94 37,93 38,92 39,91 40,92 41,91 42,90 43,91 44,90 45,89 46,90 47,91 48,90 49,91 50,90 51,89 52,88 53,87 54,88 55,89 56,88 57,87 58,86 59,87 60,88 61,89 62,88 63,89 64,88 65,89 66,88 67,89 68,90 69,89 70,90 71,91 72,92 73,91 74,92 75,91 76,92 77,93 78,94 79,93 80,92 81,91 82,92 83,91 84,92 85,91 86,92 87,93 88,92 89,91 90,90 91,91 92,90 93,89 94,88 95,89 96,90 97,89 98,88 99,87 100,88 101,89 102,88 103,89 104,88 105,89 106,88 107,87 108,86 109,87 110,88 111,89 112,88 113,87 114,86 115,85 116,86 117,87 118,86 119,85 120,84 121,85 122,86 123,87 124,88 125,89 126,88 127,87 128,88 129,87 130,88 131,89 132,90 133,89 134,88 135,87 136,86 137,85 138,84 139,83 140,84 141,85 142,86 143,85 144,84 145,83 146,84 147,83 148,82 149,81 150,82 151,83 152,84 153,85 154,84 155,83 156,82 157,81 158,80 159,79 160,78 161,79 162,80 163,79 164,80 165,79 166,80 167,79 168,78 169,79 170,80 171,79 172,78 173,79 174,80 175,79 176,78 177,77 178,76 179,75 180,76 181,77 182,78 183,79 184,80 185,81 186,80 187,79 188,80 189,81 190,82 191,81 192,82 193,83 194,82 195,81 196,82 197,83 198,82 199,83 200,84 201,83 202,82 203,81 204,82 205,83 206,84 207,83 208,84 209,83 210,84 211,83 212,84 213,83 214,82 215,81 216,82 217,83 218,84 219,83 220,82 221,81 222,80 223,81 224,80 225,79 226,78 227,79 228,80 229,79 230,80 231,79 232,80 233,81 234,80 235,81 236,80 237,79 238,78 239,77 240,76 241,77 242,78 243,79 244,78 245,77 246,76 247,75 248,74 249,75 250,74 251,75 252,76 253,77 254,78 255,79 256,80 257,81 258,80 259,79 260,80 261,81 262,80 263,79 264,78 265,77 266,78 267,77 268,76 269,77 270,76 271,75 272,74 273,73 274,74 275,75 276,74 277,75 278,74 279,73 280,72 281,71 282,72 283,73 284,72 285,73 286,72 287,73 288,72 289,73 290,74 291,73 292,72 293,71 294,70 295,71 296,72 297,73 298,74 299,75 300,76 301,77 302,78 303,79 304,78 305,79 306,80 307,79 308,78 309,77 310,76 311,77 312,78 313,79 314,78 315,77 316,76 317,77 318,76 319,77 320,78 321,77 322,78 323,79 324,78 325,77 326,76 327,75 328,76 329,77 330,78 331,77 332,76 333,75 334,74 335,75 336,76 337,75 338,74 339,75 340,76 341,75 342,74 343,75 344,76 345,77 346,78 347,79 348,80 349,81 350,80 351,81 352,80 353,81 354,82 355,83 356,84 357,83 358,82 359,81 360,80 361,81 362,80 363,81 364,80 365,79 366,78 367,79 368,78 369,77 370,76 371,77 372,78 373,79 374,78 375,77 376,78 377,77 378,76 379,75 380,76 381,77 382,76 383,75 384,74 385,75 386,74 387,75 388,74 389,75 390,74 391,75 392,76 393,77 394,76 395,75 396,76 397,77 398,78 399,77 400,200 " style="fill:rgb(6,239,232);stroke:rgb(0,139,132)"></polygon><polygon points="0,200 0,100 1,99 2,100 3,99 4,100 5,99 6,98 7,99 8,100 9,101 10,100 11,99 12,100 13,99 14,98 15,97 16,96 17,95 18,94 19,93 20,94 21,93 22,94 23,95 24,96 25,97 26,96 27,95 28,94 29,95 30,94 31,93 32,94 33,95 34,96 35,95 36,96 37,95 38,96 39,97 40,96 41,95 42,96 43,97 44,96 45,95 46,94 47,95 48,94 49,95 50,94 51,93 52,92 53,93 54,92 55,91 56,92 57,93 58,92 59,91 60,92 61,91 62,90 63,89 64,90 65,91 66,92 67,93 68,92 69,91 70,90 71,89 72,90 73,89 74,88 75,87 76,88 77,87 78,86 79,85 80,86 81,85 82,84 83,83 84,84 85,85 86,84 87,83 88,82 89,83 90,84 91,85 92,84 93,83 94,82 95,83 96,82 97,81 98,82 99,81 100,80 101,81 102,80 103,79 104,78 105,79 106,80 107,81 108,80 109,81 110,80 111,81 112,80 113,79 114,78 115,79 116,80 117,81 118,80 119,81 120,80 121,79 122,78 123,79 124,80 125,79 126,78 127,79 128,78 129,77 130,78 131,79 132,78 133,79 134,80 135,79 136,78 137,77 138,78 139,77 140,78 141,79 142,78 143,77 144,76 145,77 146,78 147,79 148,78 149,79 150,80 151,81 152,80 153,81 154,80 155,79 156,80 157,81 158,80 159,81 160,82 161,81 162,82 163,81 164,82 165,81 166,82 167,83 168,84 169,83 170,84 171,83 172,82 173,83 174,82 175,83 176,84 177,85 178,86 179,85 180,86 181,87 182,88 183,89 184,90 185,91 186,92 187,93 188,94 189,95 190,94 191,93 192,92 193,91 194,92 195,91 196,92 197,93 198,94 199,95 200,94 201,95 202,96 203,95 204,94 205,93 206,92 207,91 208,92 209,91 210,90 211,91 212,92 213,91 214,90 215,91 216,92 217,93 218,94 219,95 220,94 221,95 222,96 223,95 224,94 225,95 226,94 227,95 228,94 229,93 230,92 231,93 232,92 233,91 234,92 235,91 236,92 237,91 238,90 239,91 240,92 241,93 242,94 243,95 244,94 245,95 246,96 247,95 248,94 249,93 250,92 251,91 252,92 253,93 254,92 255,93 256,94 257,93 258,92 259,91 260,92 261,93 262,92 263,91 264,92 265,93 266,92 267,91 268,92 269,93 270,94 271,95 272,94 273,95 274,96 275,95 276,94 277,93 278,94 279,95 280,96 281,95 282,96 283,97 284,98 285,99 286,100 287,99 288,98 289,99 290,98 291,97 292,98 293,97 294,96 295,97 296,98 297,97 298,98 299,99 300,100 301,99 302,100 303,99 304,98 305,97 306,96 307,97 308,98 309,99 310,98 311,99 312,100 313,99 314,100 315,101 316,102 317,103 318,104 319,103 320,104 321,103 322,104 323,105 324,104 325,105 326,106 327,107 328,106 329,105 330,104 331,103 332,102 333,101 334,102 335,103 336,104 337,105 338,104 339,103 340,102 341,103 342,102 343,103 344,102 345,103 346,102 347,101 348,102 349,103 350,102 351,103 352,102 353,103 354,104 355,105 356,104 357,103 358,102 359,103 360,104 361,103 362,104 363,105 364,104 365,105 366,106 367,107 368,106 369,105 370,104 371,105 372,104 373,105 374,104 375,103 376,102 377,103 378,104 379,103 380,104 381,105 382,104 383,105 384,106 385,105 386,104 387,105 388,104 389,103 390,102 391,103 392,104 393,103 394,104 395,103 396,102 397,103 398,102 399,101 400,200 " style="fill:rgb(51,7,69);stroke:rgb(0,0,0)"></polygon><polygon points="0,200 0,100 1,101 2,102 3,103 4,104 5,103 6,102 7,103 8,104 9,103 10,102 11,101 12,102 13,101 14,102 15,103 16,104 17,105 18,106 19,105 20,104 21,105 22,104 23,105 24,104 25,103 26,104 27,105 28,104 29,105 30,104 31,105 32,106 33,105 34,106 35,107 36,106 37,107 38,108 39,107 40,106 41,105 42,104 43,105 44,104 45,105 46,104 47,105 48,106 49,107 50,106 51,105 52,104 53,105 54,106 55,107 56,106 57,105 58,106 59,107 60,108 61,109 62,110 63,111 64,112 65,111 66,110 67,109 68,110 69,111 70,110 71,109 72,108 73,107 74,108 75,109 76,108 77,109 78,108 79,107 80,108 81,107 82,108 83,109 84,108 85,109 86,108 87,109 88,108 89,109 90,108 91,109 92,108 93,107 94,106 95,107 96,108 97,109 98,110 99,111 100,112 101,113 102,112 103,113 104,114 105,115 106,114 107,113 108,112 109,111 110,110 111,109 112,110 113,111 114,110 115,111 116,110 117,109 118,108 119,107 120,106 121,105 122,106 123,105 124,104 125,105 126,104 127,105 128,106 129,107 130,106 131,105 132,106 133,107 134,106 135,105 136,104 137,105 138,104 139,105 140,104 141,103 142,102 143,103 144,104 145,105 146,106 147,105 148,104 149,103 150,102 151,103 152,104 153,103 154,104 155,103 156,102 157,103 158,104 159,103 160,104 161,103 162,104 163,105 164,106 165,107 166,108 167,107 168,106 169,105 170,106 171,107 172,106 173,105 174,104 175,103 176,102 177,101 178,100 179,101 180,102 181,101 182,102 183,101 184,100 185,101 186,102 187,101 188,100 189,101 190,100 191,101 192,102 193,103 194,104 195,103 196,104 197,103 198,102 199,103 200,104 201,105 202,104 203,103 204,104 205,105 206,106 207,105 208,104 209,103 210,104 211,105 212,104 213,105 214,104 215,105 216,106 217,107 218,106 219,107 220,106 221,107 222,108 223,109 224,108 225,109 226,110 227,111 228,110 229,111 230,110 231,109 232,110 233,111 234,112 235,111 236,110 237,111 238,110 239,109 240,108 241,107 242,108 243,107 244,106 245,107 246,108 247,109 248,108 249,107 250,108 251,109 252,110 253,111 254,110 255,111 256,110 257,109 258,110 259,109 260,108 261,107 262,106 263,107 264,106 265,105 266,104 267,103 268,104 269,105 270,106 271,105 272,106 273,107 274,106 275,107 276,108 277,107 278,108 279,109 280,108 281,109 282,108 283,107 284,108 285,107 286,108 287,107 288,108 289,109 290,110 291,109 292,108 293,109 294,108 295,107 296,108 297,107 298,106 299,107 300,106 301,105 302,104 303,103 304,104 305,105 306,106 307,107 308,108 309,107 310,106 311,107 312,106 313,107 314,108 315,107 316,108 317,109 318,108 319,109 320,108 321,109 322,108 323,107 324,108 325,109 326,108 327,109 328,110 329,111 330,110 331,111 332,110 333,109 334,108 335,109 336,108 337,107 338,106 339,107 340,106 341,105 342,104 343,105 344,104 345,103 346,104 347,103 348,104 349,103 350,104 351,103 352,102 353,101 354,102 355,101 356,102 357,103 358,104 359,103 360,102 361,101 362,102 363,101 364,100 365,101 366,100 367,101 368,102 369,103 370,104 371,103 372,104 373,105 374,104 375,103 376,102 377,101 378,100 379,101 380,102 381,103 382,104 383,103 384,104 385,103 386,102 387,101 388,100 389,101 390,102 391,103 392,104 393,103 394,104 395,105 396,104 397,105 398,104 399,105 400,200 " style="fill:rgb(251,192,99);stroke:rgb(151,92,0)"></polygon><polygon points="0,200 0,100 1,101 2,100 3,101 4,102 5,103 6,102 7,103 8,102 9,103 10,104 11,103 12,104 13,105 14,106 15,107 16,108 17,109 18,110 19,111 20,112 21,113 22,112 23,111 24,112 25,111 26,112 27,111 28,110 29,109 30,108 31,109 32,108 33,107 34,108 35,109 36,108 37,109 38,110 39,111 40,112 41,113 42,114 43,113 44,114 45,115 46,114 47,115 48,116 49,117 50,118 51,117 52,116 53,115 54,114 55,113 56,112 57,111 58,110 59,111 60,110 61,109 62,108 63,107 64,106 65,107 66,106 67,105 68,106 69,107 70,108 71,107 72,106 73,107 74,108 75,107 76,108 77,107 78,106 79,107 80,108 81,107 82,108 83,107 84,108 85,107 86,106 87,105 88,104 89,103 90,102 91,101 92,102 93,101 94,100 95,99 96,100 97,99 98,98 99,99 100,100 101,99 102,100 103,99 104,98 105,97 106,98 107,99 108,98 109,97 110,98 111,97 112,96 113,95 114,96 115,97 116,96 117,97 118,98 119,99 120,98 121,97 122,96 123,97 124,96 125,95 126,96 127,97 128,98 129,99 130,100 131,101 132,100 133,99 134,100 135,99 136,100 137,99 138,98 139,99 140,98 141,97 142,96 143,97 144,96 145,95 146,94 147,95 148,96 149,95 150,96 151,97 152,98 153,97 154,96 155,95 156,96 157,95 158,96 159,95 160,96 161,95 162,94 163,93 164,94 165,95 166,96 167,97 168,96 169,95 170,94 171,95 172,96 173,95 174,94 175,95 176,96 177,97 178,96 179,97 180,96 181,95 182,96 183,97 184,98 185,99 186,98 187,97 188,96 189,95 190,94 191,93 192,92 193,93 194,94 195,95 196,96 197,95 198,96 199,97 200,98 201,99 202,98 203,97 204,96 205,95 206,96 207,97 208,96 209,97 210,98 211,97 212,98 213,99 214,98 215,99 216,100 217,99 218,98 219,99 220,100 221,99 222,100 223,101 224,100 225,99 226,100 227,99 228,98 229,97 230,98 231,97 232,96 233,97 234,98 235,97 236,96 237,95 238,96 239,97 240,96 241,95 242,94 243,95 244,94 245,93 246,92 247,93 248,94 249,95 250,94 251,93 252,92 253,91 254,92 255,93 256,92 257,91 258,92 259,93 260,92 261,93 262,94 263,95 264,96 265,95 266,96 267,97 268,98 269,97 270,96 271,97 272,98 273,99 274,98 275,97 276,96 277,95 278,96 279,95 280,96 281,97 282,96 283,95 284,96 285,97 286,96 287,95 288,96 289,97 290,96 291,97 292,96 293,97 294,96 295,95 296,94 297,95 298,94 299,95 300,94 301,93 302,94 303,93 304,94 305,93 306,94 307,95 308,96 309,97 310,96 311,97 312,96 313,95 314,96 315,97 316,98 317,99 318,98 319,99 320,98 321,99 322,100 323,101 324,102 325,103 326,102 327,101 328,102 329,101 330,102 331,103 332,104 333,105 334,106 335,107 336,108 337,107 338,108 339,109 340,108 341,109 342,108 343,109 344,110 345,109 346,110 347,111 348,110 349,111 350,110 351,111 352,110 353,111 354,112 355,113 356,114 357,113 358,114 359,113 360,114 361,115 362,116 363,115 364,114 365,115 366,114 367,113 368,112 369,111 370,112 371,111 372,112 373,111 374,112 375,113 376,112 377,111 378,110 379,111 380,112 381,111 382,112 383,111 384,110 385,109 386,108 387,109 388,108 389,107 390,106 391,107 392,106 393,105 394,104 395,103 396,102 397,101 398,102 399,103 400,200 " style="fill:rgb(61,76,69);stroke:rgb(0,0,0)"></polygon><polygon points="0,200 0,100 1,99 2,100 3,101 4,100 5,101 6,102 7,103 8,102 9,103 10,102 11,103 12,104 13,103 14,102 15,103 16,102 17,103 18,104 19,103 20,102 21,103 22,104 23,103 24,102 25,101 26,102 27,103 28,104 29,105 30,104 31,103 32,104 33,105 34,106 35,107 36,108 37,109 38,110 39,111 40,110 41,109 42,110 43,109 44,110 45,111 46,110 47,111 48,112 49,113 50,112 51,113 52,112 53,113 54,112 55,111 56,110 57,111 58,112 59,111 60,112 61,111 62,110 63,111 64,110 65,109 66,108 67,109 68,108 69,109 70,108 71,107 72,108 73,107 74,106 75,107 76,106 77,107 78,106 79,105 80,106 81,105 82,104 83,103 84,102 85,101 86,100 87,101 88,100 89,101 90,100 91,99 92,100 93,101 94,100 95,99 96,98 97,99 98,100 99,101 100,100 101,101 102,102 103,103 104,102 105,101 106,100 107,101 108,100 109,99 110,98 111,97 112,96 113,95 114,96 115,97 116,96 117,95 118,96 119,97 120,96 121,95 122,94 123,95 124,94 125,93 126,92 127,91 128,92 129,93 130,94 131,95 132,96 133,97 134,98 135,99 136,98 137,97 138,98 139,97 140,98 141,99 142,98 143,97 144,96 145,95 146,96 147,95 148,94 149,95 150,94 151,93 152,92 153,91 154,90 155,89 156,88 157,89 158,88 159,89 160,88 161,87 162,86 163,87 164,88 165,87 166,86 167,85 168,86 169,87 170,88 171,87 172,86 173,87 174,86 175,85 176,86 177,87 178,88 179,87 180,88 181,87 182,86 183,87 184,86 185,85 186,86 187,85 188,86 189,85 190,86 191,85 192,84 193,83 194,82 195,83 196,84 197,85 198,84 199,83 200,84 201,83 202,82 203,81 204,80 205,79 206,78 207,77 208,76 209,77 210,76 211,75 212,76 213,75 214,76 215,77 216,78 217,79 218,80 219,79 220,78 221,79 222,78 223,79 224,78 225,77 226,78 227,77 228,76 229,75 230,74 231,75 232,76 233,75 234,76 235,77 236,78 237,79 238,80 239,79 240,78 241,77 242,76 243,75 244,76 245,77 246,78 247,77 248,78 249,79 250,80 251,79 252,78 253,79 254,80 255,79 256,78 257,79 258,78 259,79 260,78 261,79 262,80 263,79 264,78 265,77 266,78 267,79 268,78 269,79 270,80 271,79 272,80 273,81 274,82 275,81 276,80 277,79 278,78 279,77 280,78 281,77 282,78 283,77 284,78 285,79 286,78 287,77 288,76 289,77 290,76 291,75 292,74 293,75 294,76 295,75 296,74 297,75 298,76 299,75 300,74 301,75 302,74 303,73 304,74 305,75 306,74 307,73 308,72 309,71 310,72 311,71 312,72 313,73 314,74 315,75 316,76 317,77 318,76 319,75 320,76 321,77 322,78 323,79 324,78 325,79 326,78 327,79 328,80 329,79 330,80 331,81 332,82 333,81 334,82 335,83 336,84 337,83 338,82 339,81 340,82 341,83 342,84 343,83 344,84 345,85 346,84 347,85 348,86 349,87 350,88 351,87 352,88 353,87 354,86 355,87 356,86 357,87 358,88 359,87 360,86 361,87 362,88 363,89 364,90 365,91 366,92 367,93 368,92 369,91 370,92 371,91 372,90 373,91 374,90 375,91 376,92 377,91 378,92 379,93 380,92 381,91 382,90 383,89 384,90 385,89 386,88 387,87 388,86 389,87 390,88 391,89 392,88 393,87 394,86 395,85 396,86 397,85 398,84 399,85 400,200 " style="fill:rgb(42,39,167);stroke:rgb(0,0,67)"></polygon><polygon points="0,200 0,100 1,99 2,100 3,101 4,100 5,101 6,102 7,103 8,104 9,103 10,102 11,101 12,102 13,101 14,102 15,103 16,104 17,103 18,104 19,103 20,102 21,103 22,102 23,101 24,100 25,101 26,100 27,101 28,100 29,101 30,102 31,103 32,104 33,105 34,106 35,107 36,108 37,109 38,108 39,107 40,108 41,109 42,108 43,109 44,108 45,107 46,108 47,109 48,110 49,109 50,110 51,111 52,112 53,113 54,114 55,113 56,112 57,113 58,114 59,115 60,114 61,113 62,114 63,113 64,112 65,113 66,114 67,113 68,112 69,111 70,112 71,111 72,112 73,111 74,112 75,113 76,114 77,115 78,116 79,115 80,114 81,115 82,116 83,115 84,114 85,115 86,114 87,115 88,116 89,117 90,118 91,119 92,120 93,119 94,118 95,117 96,118 97,119 98,120 99,119 100,120 101,119 102,120 103,121 104,122 105,121 106,122 107,123 108,122 109,123 110,122 111,123 112,122 113,123 114,124 115,125 116,126 117,125 118,124 119,125 120,126 121,127 122,128 123,127 124,126 125,127 126,128 127,129 128,130 129,131 130,132 131,131 132,130 133,131 134,132 135,131 136,132 137,133 138,132 139,131 140,132 141,133 142,132 143,133 144,132 145,131 146,130 147,131 148,132 149,131 150,132 151,131 152,130 153,131 154,130 155,131 156,132 157,131 158,132 159,131 160,130 161,129 162,130 163,129 164,130 165,129 166,130 167,129 168,128 169,129 170,130 171,129 172,128 173,127 174,126 175,125 176,124 177,125 178,126 179,127 180,126 181,127 182,128 183,129 184,130 185,129 186,128 187,127 188,126 189,127 190,126 191,125 192,126 193,127 194,126 195,125 196,124 197,123 198,124 199,125 200,124 201,125 202,126 203,127 204,128 205,129 206,130 207,131 208,132 209,133 210,132 211,133 212,132 213,131 214,132 215,133 216,134 217,133 218,132 219,131 220,132 221,131 222,130 223,131 224,130 225,131 226,130 227,129 228,128 229,129 230,130 231,131 232,130 233,129 234,128 235,127 236,128 237,127 238,128 239,129 240,128 241,127 242,126 243,127 244,126 245,127 246,128 247,127 248,126 249,125 250,126 251,127 252,126 253,125 254,124 255,125 256,126 257,127 258,126 259,125 260,124 261,123 262,124 263,125 264,124 265,123 266,122 267,121 268,120 269,121 270,120 271,119 272,118 273,119 274,120 275,119 276,120 277,121 278,122 279,121 280,120 281,119 282,118 283,117 284,118 285,117 286,118 287,119 288,120 289,119 290,118 291,117 292,116 293,115 294,116 295,115 296,114 297,115 298,114 299,115 300,114 301,115 302,114 303,113 304,112 305,111 306,112 307,113 308,114 309,115 310,116 311,117 312,116 313,115 314,114 315,115 316,116 317,115 318,116 319,115 320,116 321,117 322,116 323,117 324,116 325,117 326,116 327,115 328,114 329,113 330,114 331,115 332,114 333,113 334,112 335,113 336,114 337,115 338,116 339,115 340,116 341,117 342,118 343,117 344,118 345,117 346,116 347,115 348,114 349,113 350,112 351,111 352,110 353,109 354,108 355,109 356,110 357,111 358,110 359,109 360,108 361,107 362,108 363,109 364,110 365,111 366,112 367,111 368,110 369,111 370,110 371,111 372,110 373,111 374,112 375,111 376,112 377,111 378,110 379,109 380,110 381,109 382,110 383,111 384,112 385,113 386,112 387,113 388,112 389,111 390,112 391,111 392,110 393,111 394,110 395,109 396,110 397,111 398,112 399,111 400,200 " style="fill:rgb(71,150,46);stroke:rgb(0,50,0)"></polygon><polygon points="0,200 0,100 1,99 2,98 3,97 4,96 5,95 6,94 7,95 8,94 9,95 10,94 11,95 12,94 13,95 14,96 15,95 16,94 17,95 18,96 19,95 20,94 21,95 22,96 23,97 24,96 25,95 26,94 27,95 28,96 29,95 30,94 31,95 32,96 33,97 34,98 35,97 36,96 37,97 38,98 39,99 40,100 41,99 42,98 43,97 44,96 45,97 46,96 47,97 48,96 49,95 50,96 51,95 52,96 53,97 54,98 55,97 56,98 57,99 58,98 59,99 60,98 61,97 62,96 63,95 64,94 65,95 66,96 67,95 68,94 69,95 70,96 71,95 72,96 73,95 74,96 75,95 76,96 77,97 78,98 79,99 80,100 81,99 82,98 83,99 84,98 85,99 86,98 87,99 88,98 89,99 90,100 91,101 92,100 93,101 94,102 95,101 96,100 97,101 98,102 99,103 100,104 101,103 102,104 103,105 104,104 105,105 106,106 107,105 108,106 109,105 110,106 111,107 112,108 113,107 114,108 115,109 116,108 117,109 118,108 119,107 120,108 121,107 122,106 123,107 124,108 125,107 126,108 127,109 128,110 129,109 130,108 131,109 132,110 133,109 134,108 135,109 136,108 137,107 138,106 139,107 140,108 141,107 142,106 143,105 144,106 145,105 146,104 147,105 148,104 149,105 150,106 151,107 152,106 153,105 154,104 155,105 156,106 157,105 158,106 159,107 160,108 161,107 162,108 163,107 164,108 165,107 166,106 167,105 168,104 169,103 170,104 171,105 172,104 173,105 174,104 175,103 176,102 177,101 178,102 179,101 180,102 181,103 182,102 183,101 184,102 185,101 186,100 187,101 188,100 189,101 190,100 191,101 192,102 193,101 194,100 195,101 196,100 197,101 198,102 199,103 200,104 201,103 202,104 203,103 204,102 205,101 206,100 207,101 208,102 209,103 210,102 211,101 212,100 213,101 214,100 215,99 216,98 217,99 218,98 219,97 220,98 221,99 222,98 223,97 224,96 225,95 226,96 227,95 228,94 229,95 230,96 231,97 232,98 233,97 234,96 235,97 236,98 237,97 238,98 239,99 240,98 241,99 242,100 243,99 244,100 245,101 246,102 247,101 248,102 249,103 250,102 251,101 252,102 253,103 254,102 255,101 256,100 257,99 258,100 259,101 260,102 261,101 262,102 263,103 264,104 265,103 266,102 267,103 268,102 269,103 270,104 271,105 272,106 273,107 274,106 275,105 276,106 277,105 278,106 279,105 280,106 281,107 282,108 283,107 284,106 285,105 286,104 287,105 288,106 289,105 290,106 291,105 292,104 293,105 294,104 295,103 296,104 297,105 298,104 299,103 300,102 301,101 302,100 303,99 304,100 305,99 306,98 307,97 308,96 309,95 310,96 311,95 312,96 313,97 314,98 315,97 316,98 317,97 318,96 319,95 320,94 321,93 322,94 323,95 324,96 325,97 326,96 327,97 328,98 329,99 330,100 331,99 332,100 333,101 334,102 335,103 336,102 337,101 338,102 339,103 340,102 341,101 342,100 343,101 344,102 345,103 346,104 347,103 348,104 349,105 350,106 351,105 352,104 353,103 354,104 355,103 356,104 357,103 358,102 359,101 360,102 361,103 362,104 363,103 364,104 365,103 366,102 367,101 368,102 369,103 370,102 371,101 372,100 373,99 374,98 375,99 376,100 377,99 378,98 379,97 380,96 381,97 382,96 383,97 384,98 385,99 386,98 387,97 388,98 389,99 390,100 391,99 392,100 393,99 394,98 395,97 396,98 397,97 398,96 399,97 400,200 " style="fill:rgb(0,137,111);stroke:rgb(0,37,11)"></polygon><polygon points="0,200 0,100 1,101 2,100 3,101 4,102 5,101 6,102 7,101 8,100 9,99 10,100 11,99 12,100 13,101 14,102 15,103 16,102 17,101 18,100 19,101 20,102 21,103 22,102 23,103 24,104 25,103 26,102 27,101 28,102 29,103 30,102 31,101 32,100 33,101 34,100 35,99 36,98 37,99 38,98 39,99 40,98 41,99 42,98 43,97 44,98 45,99 46,98 47,97 48,96 49,97 50,98 51,97 52,98 53,97 54,98 55,99 56,98 57,97 58,98 59,99 60,98 61,97 62,98 63,99 64,100 65,101 66,100 67,99 68,98 69,97 70,98 71,97 72,98 73,97 74,98 75,99 76,98 77,97 78,98 79,99 80,98 81,99 82,100 83,99 84,100 85,99 86,100 87,99 88,100 89,101 90,102 91,101 92,102 93,103 94,104 95,103 96,102 97,103 98,102 99,103 100,104 101,105 102,106 103,107 104,108 105,107 106,106 107,105 108,104 109,103 110,104 111,105 112,106 113,107 114,108 115,107 116,106 117,107 118,108 119,109 120,108 121,107 122,106 123,105 124,104 125,103 126,104 127,105 128,106 129,107 130,108 131,107 132,106 133,107 134,108 135,107 136,108 137,109 138,110 139,111 140,112 141,113 142,112 143,113 144,114 145,115 146,116 147,117 148,116 149,115 150,114 151,113 152,112 153,111 154,110 155,109 156,110 157,109 158,108 159,109 160,110 161,109 162,110 163,111 164,110 165,109 166,110 167,111 168,112 169,111 170,112 171,113 172,112 173,111 174,112 175,113 176,114 177,115 178,116 179,117 180,116 181,115 182,116 183,117 184,116 185,117 186,116 187,115 188,114 189,115 190,114 191,113 192,112 193,113 194,114 195,113 196,114 197,115 198,116 199,115 200,116 201,117 202,116 203,115 204,114 205,113 206,114 207,115 208,114 209,113 210,112 211,113 212,114 213,115 214,114 215,115 216,114 217,115 218,116 219,115 220,116 221,115 222,116 223,115 224,114 225,113 226,114 227,113 228,114 229,115 230,116 231,117 232,118 233,117 234,118 235,117 236,118 237,119 238,120 239,119 240,118 241,117 242,118 243,117 244,116 245,115 246,116 247,117 248,116 249,117 250,118 251,119 252,118 253,117 254,116 255,115 256,114 257,115 258,116 259,115 260,116 261,115 262,116 263,117 264,118 265,119 266,120 267,119 268,118 269,117 270,116 271,115 272,116 273,115 274,114 275,113 276,112 277,113 278,114 279,113 280,112 281,111 282,110 283,111 284,110 285,111 286,110 287,111 288,112 289,111 290,112 291,111 292,110 293,109 294,110 295,109 296,110 297,109 298,108 299,109 300,110 301,111 302,112 303,111 304,112 305,113 306,114 307,115 308,114 309,113 310,112 311,113 312,112 313,111 314,112 315,113 316,114 317,115 318,116 319,117 320,118 321,119 322,120 323,119 324,118 325,117 326,116 327,117 328,116 329,117 330,116 331,117 332,116 333,115 334,114 335,115 336,116 337,117 338,118 339,117 340,116 341,117 342,118 343,119 344,118 345,119 346,120 347,119 348,118 349,117 350,118 351,119 352,118 353,117 354,118 355,119 356,120 357,121 358,120 359,121 360,120 361,121 362,120 363,121 364,120 365,119 366,118 367,119 368,118 369,117 370,118 371,119 372,120 373,119 374,118 375,119 376,118 377,117 378,116 379,115 380,114 381,115 382,116 383,115 384,116 385,115 386,114 387,113 388,112 389,113 390,114 391,113 392,114 393,113 394,114 395,115 396,114 397,113 398,114 399,113 400,200 " style="fill:rgb(209,241,42);stroke:rgb(109,141,0)"></polygon></svg>